/* XPM */
static char *result[] = {
/* columns rows colors chars-per-pixel */
"50 50 40 1 ",
"  c black",
". c #040404",
"X c #0A0806",
"o c #0D0B07",
"O c #090909",
"+ c gray4",
"@ c #0B0B0B",
"# c #0C0C0C",
"$ c gray6",
"% c #111111",
"& c #1E1E1E",
"* c #3F3014",
"= c #012E27",
"- c #202020",
"; c #2C2B2A",
": c #2D2D2D",
"> c gray20",
", c #333434",
"< c gray21",
"1 c #373737",
"2 c #383837",
"3 c #3A3A3A",
"4 c #3E3E3E",
"5 c #3F3F3E",
"6 c #403F3F",
"7 c #594417",
"8 c #586738",
"9 c #004F42",
"0 c #484644",
"q c #4A4948",
"w c #4D4C4B",
"e c #7C7A76",
"r c #7D7B77",
"t c #D97F40",
"y c #938567",
"u c #DF8844",
"i c #F6A954",
"p c #00B49D",
"a c #8A8882",
"s c #A29E96",
/* pixels */
"88888888888888888888888888888888888888888888888888",
"88888888888888888888888....88888888888888888888888",
"88888888888888888888888....88888888888888888888888",
"8888888888888888888888.pppp.8888888888888888888888",
"888888888888888888888..pppp..888888888888888888888",
"888888888888888888888..pppp..888888888888888888888",
"8888888888888888888..99pppp99..8888888888888888888",
"8888888888888888888..99pppp99..8888888888888888888",
"8888888888888888888..99999999..8888888888888888888",
"8888888888888888888..99999999..8888888888888888888",
"8888888888888888888..==9999==..8888888888888888888",
"8888888888888888888..==9999==..8888888888888888888",
"88888888888888888..&&========&&..88888888888888888",
"88888888888888888..&&========&&..88888888888888888",
"88888888888888...&&>,ww====ww11&&..888888888888888",
"88888888888888...&&<1ww====ww11&&..888888888888888",
"88888888888888..&&&wwwwsssswwww&&&.888888888888888",
"888888888888....&&&wwwwsssswwww&&&....888888888888",
"888888888888..rrrrr45wwaaaaww66rrrrr..888888888888",
"888888888888  rrrrr66wwaaaaww66rrrrr  888888888888",
"888888888888  rrrrr66wwssssww66rrrrr  888888888888",
"888888888888..wwrrrrrssssssssrrrrr11  888888888888",
"888888888888..wwrrrrrssssssssrrrrr11..888888888888",
"888888888888  &&211rrrrssssrrrr11:....888888888888",
"888888888888  &&211rrrrssssrrrr11:....888888888888",
"88888888888888  %&-<<<3wwww<<<<11+..88888888888888",
"88888888888888  %&-<<<3wwww<<<<11+..88888888888888",
"88888888888888  wwwwwwwwwwwwwwwwww..88888888888888",
"88888888888888  wwwwwwwwwwwwwwwwww..88888888888888",
"88888888888888..0rr<1wwwwwwww11rr;..88888888888888",
"88888888888888..0rr<1wwwwwwww11rr;..88888888888888",
"88888888888888..rrrrrrrrrrrrrrrrrr..88888888888888",
"888888888888..rrrrrrrrrrrrrrrrrrrrrr..888888888888",
"888888888888..rrrrrrrrrrrrrrrrrrrrrr..888888888888",
"8888888888..iiiii..wwrrrrrrrrww..iiiii..8888888888",
"8888888888..iiiii..wweeeeeeeeww..iiiii..8888888888",
"8888888888..iiitt.@wwwwuiiiuwww$.ttiii..8888888888",
"8888888888..iiitt.@qqwuii*iiiww..ttiii..8888888888",
"888888888888......O<1wiii*iiu11.......888888888888",
"888888888888......O<1wwuiiiuw11#......888888888888",
"88888888888888888.X****....****o.88888888888888888",
"88888888888888888..****....****..88888888888888888",
"88888888888888888..7777....7777..88888888888888888",
"88888888888888888..7777....7777..88888888888888888",
"88888888888888888..yyyy....yyyy..88888888888888888",
"88888888888888888888888888888888888888888888888888",
"88888888888888888888888888888888888888888888888888",
"88888888888888888888888888888888888888888888888888",
"88888888888888888888888888888888888888888888888888",
"88888888888888888888888888888888888888888888888888"
};
